<svg id="visual" viewBox="0 0 1366 354" width="1366" height="354" xmlns="http://www.w3.org/2000/svg" xmlns:xlink="http://www.w3.org/1999/xlink" version="1.1"><path d="M0 15L14.2 19.2C28.3 23.3 56.7 31.7 85.2 32.3C113.7 33 142.3 26 170.8 24.8C199.3 23.7 227.7 28.3 256.2 37.2C284.7 46 313.3 59 341.8 62C370.3 65 398.7 58 427 49.7C455.3 41.3 483.7 31.7 512.2 30.3C540.7 29 569.3 36 597.8 36C626.3 36 654.7 29 683 25.5C711.3 22 739.7 22 768.2 25.5C796.7 29 825.3 36 853.8 36C882.3 36 910.7 29 939.2 27.8C967.7 26.7 996.3 31.3 1024.8 31.3C1053.3 31.3 1081.7 26.7 1110 32.7C1138.3 38.7 1166.7 55.3 1195.2 58.3C1223.7 61.3 1252.3 50.7 1280.8 45.8C1309.3 41 1337.7 42 1351.8 42.5L1366 43L1366 0L1351.8 0C1337.7 0 1309.3 0 1280.8 0C1252.3 0 1223.7 0 1195.2 0C1166.7 0 1138.3 0 1110 0C1081.7 0 1053.3 0 1024.8 0C996.3 0 967.7 0 939.2 0C910.7 0 882.3 0 853.8 0C825.3 0 796.7 0 768.2 0C739.7 0 711.3 0 683 0C654.7 0 626.3 0 597.8 0C569.3 0 540.7 0 512.2 0C483.7 0 455.3 0 427 0C398.7 0 370.3 0 341.8 0C313.3 0 284.7 0 256.2 0C227.7 0 199.3 0 170.8 0C142.3 0 113.7 0 85.2 0C56.7 0 28.3 0 14.2 0L0 0Z" fill="#0093ff"></path><path d="M0 33L14.2 36.5C28.3 40 56.7 47 85.2 45.8C113.7 44.7 142.3 35.3 170.8 35.3C199.3 35.3 227.7 44.7 256.2 54C284.7 63.3 313.3 72.7 341.8 75C370.3 77.3 398.7 72.7 427 63.8C455.3 55 483.7 42 512.2 44.3C540.7 46.7 569.3 64.3 597.8 67.3C626.3 70.3 654.7 58.7 683 51C711.3 43.3 739.7 39.7 768.2 46.2C796.7 52.7 825.3 69.3 853.8 70C882.3 70.7 910.7 55.3 939.2 53.5C967.7 51.7 996.3 63.3 1024.8 63.3C1053.3 63.3 1081.7 51.7 1110 53.5C1138.3 55.3 1166.7 70.7 1195.2 80.2C1223.7 89.7 1252.3 93.3 1280.8 89.2C1309.3 85 1337.7 73 1351.8 67L1366 61L1366 41L1351.8 40.5C1337.7 40 1309.3 39 1280.8 43.8C1252.3 48.7 1223.7 59.3 1195.2 56.3C1166.7 53.3 1138.3 36.7 1110 30.7C1081.7 24.7 1053.3 29.3 1024.8 29.3C996.3 29.3 967.7 24.7 939.2 25.8C910.7 27 882.3 34 853.8 34C825.3 34 796.7 27 768.2 23.5C739.7 20 711.3 20 683 23.5C654.7 27 626.3 34 597.8 34C569.3 34 540.7 27 512.2 28.3C483.7 29.7 455.3 39.3 427 47.7C398.7 56 370.3 63 341.8 60C313.3 57 284.7 44 256.2 35.2C227.7 26.3 199.3 21.7 170.8 22.8C142.3 24 113.7 31 85.2 30.3C56.7 29.7 28.3 21.3 14.2 17.2L0 13Z" fill="#007aee"></path><path d="M0 132L14.2 125C28.3 118 56.7 104 85.2 113.5C113.7 123 142.3 156 170.8 156C199.3 156 227.7 123 256.2 119.3C284.7 115.7 313.3 141.3 341.8 143.7C370.3 146 398.7 125 427 128.7C455.3 132.3 483.7 160.7 512.2 166C540.7 171.3 569.3 153.7 597.8 152.5C626.3 151.3 654.7 166.7 683 156.5C711.3 146.3 739.7 110.7 768.2 101.7C796.7 92.7 825.3 110.3 853.8 116.3C882.3 122.3 910.7 116.7 939.2 120.8C967.7 125 996.3 139 1024.8 141.3C1053.3 143.7 1081.7 134.3 1110 148.5C1138.3 162.7 1166.7 200.3 1195.2 209.2C1223.7 218 1252.3 198 1280.8 173.3C1309.3 148.7 1337.7 119.3 1351.8 104.7L1366 90L1366 59L1351.8 65C1337.7 71 1309.3 83 1280.8 87.2C1252.3 91.3 1223.7 87.7 1195.2 78.2C1166.7 68.7 1138.3 53.3 1110 51.5C1081.7 49.7 1053.3 61.3 1024.8 61.3C996.3 61.3 967.7 49.7 939.2 51.5C910.7 53.3 882.3 68.7 853.8 68C825.3 67.3 796.7 50.7 768.2 44.2C739.7 37.7 711.3 41.3 683 49C654.7 56.7 626.3 68.3 597.8 65.3C569.3 62.3 540.7 44.7 512.2 42.3C483.7 40 455.3 53 427 61.8C398.7 70.7 370.3 75.3 341.8 73C313.3 70.7 284.7 61.3 256.2 52C227.7 42.7 199.3 33.3 170.8 33.3C142.3 33.3 113.7 42.7 85.2 43.8C56.7 45 28.3 38 14.2 34.5L0 31Z" fill="#0062dc"></path><path d="M0 157L14.2 151.7C28.3 146.3 56.7 135.7 85.2 144.5C113.7 153.3 142.3 181.7 170.8 191.7C199.3 201.7 227.7 193.3 256.2 188.7C284.7 184 313.3 183 341.8 185.3C370.3 187.7 398.7 193.3 427 215.7C455.3 238 483.7 277 512.2 272.8C540.7 268.7 569.3 221.3 597.8 203C626.3 184.7 654.7 195.3 683 194.8C711.3 194.3 739.7 182.7 768.2 183.8C796.7 185 825.3 199 853.8 194.3C882.3 189.7 910.7 166.3 939.2 172.8C967.7 179.3 996.3 215.7 1024.8 226.8C1053.3 238 1081.7 224 1110 225.8C1138.3 227.7 1166.7 245.3 1195.2 252.3C1223.7 259.3 1252.3 255.7 1280.8 239.2C1309.3 222.7 1337.7 193.3 1351.8 178.7L1366 164L1366 88L1351.8 102.7C1337.7 117.3 1309.3 146.7 1280.8 171.3C1252.3 196 1223.7 216 1195.2 207.2C1166.7 198.3 1138.3 160.7 1110 146.5C1081.7 132.3 1053.3 141.7 1024.8 139.3C996.3 137 967.7 123 939.2 118.8C910.7 114.7 882.3 120.3 853.8 114.3C825.3 108.3 796.7 90.7 768.2 99.7C739.7 108.7 711.3 144.3 683 154.5C654.7 164.7 626.3 149.3 597.8 150.5C569.3 151.7 540.7 169.3 512.2 164C483.7 158.7 455.3 130.3 427 126.7C398.7 123 370.3 144 341.8 141.7C313.3 139.3 284.7 113.7 256.2 117.3C227.7 121 199.3 154 170.8 154C142.3 154 113.7 121 85.2 111.5C56.7 102 28.3 116 14.2 123L0 130Z" fill="#1948c8"></path><path d="M0 305L14.2 309.8C28.3 314.7 56.7 324.3 85.2 329.2C113.7 334 142.3 334 170.8 326.3C199.3 318.7 227.7 303.3 256.2 297.3C284.7 291.3 313.3 294.7 341.8 299.3C370.3 304 398.7 310 427 315.3C455.3 320.7 483.7 325.3 512.2 319.5C540.7 313.7 569.3 297.3 597.8 298.5C626.3 299.7 654.7 318.3 683 325.3C711.3 332.3 739.7 327.7 768.2 328.3C796.7 329 825.3 335 853.8 327.3C882.3 319.7 910.7 298.3 939.2 297.2C967.7 296 996.3 315 1024.8 315.7C1053.3 316.3 1081.7 298.7 1110 291C1138.3 283.3 1166.7 285.7 1195.2 288.5C1223.7 291.3 1252.3 294.7 1280.8 297.5C1309.3 300.3 1337.7 302.7 1351.8 303.8L1366 305L1366 162L1351.8 176.7C1337.7 191.3 1309.3 220.7 1280.8 237.2C1252.3 253.7 1223.7 257.3 1195.2 250.3C1166.7 243.3 1138.3 225.7 1110 223.8C1081.7 222 1053.3 236 1024.8 224.8C996.3 213.7 967.7 177.3 939.2 170.8C910.7 164.3 882.3 187.7 853.8 192.3C825.3 197 796.7 183 768.2 181.8C739.7 180.7 711.3 192.3 683 192.8C654.7 193.3 626.3 182.7 597.8 201C569.3 219.3 540.7 266.7 512.2 270.8C483.7 275 455.3 236 427 213.7C398.7 191.3 370.3 185.7 341.8 183.3C313.3 181 284.7 182 256.2 186.7C227.7 191.3 199.3 199.7 170.8 189.7C142.3 179.7 113.7 151.3 85.2 142.5C56.7 133.7 28.3 144.3 14.2 149.7L0 155Z" fill="#292cb1"></path><path d="M0 355L14.2 355C28.3 355 56.7 355 85.2 355C113.7 355 142.3 355 170.8 355C199.3 355 227.7 355 256.2 355C284.7 355 313.3 355 341.8 355C370.3 355 398.7 355 427 355C455.3 355 483.7 355 512.2 355C540.7 355 569.3 355 597.8 355C626.3 355 654.7 355 683 355C711.3 355 739.7 355 768.2 355C796.7 355 825.3 355 853.8 355C882.3 355 910.7 355 939.2 355C967.7 355 996.3 355 1024.8 355C1053.3 355 1081.7 355 1110 355C1138.3 355 1166.7 355 1195.2 355C1223.7 355 1252.3 355 1280.8 355C1309.3 355 1337.7 355 1351.8 355L1366 355L1366 303L1351.8 301.8C1337.7 300.7 1309.3 298.3 1280.8 295.5C1252.3 292.7 1223.7 289.3 1195.2 286.5C1166.7 283.7 1138.3 281.3 1110 289C1081.7 296.7 1053.3 314.3 1024.8 313.7C996.3 313 967.7 294 939.2 295.2C910.7 296.3 882.3 317.7 853.8 325.3C825.3 333 796.7 327 768.2 326.3C739.7 325.7 711.3 330.3 683 323.3C654.7 316.3 626.3 297.7 597.8 296.5C569.3 295.3 540.7 311.7 512.2 317.5C483.7 323.3 455.3 318.7 427 313.3C398.7 308 370.3 302 341.8 297.3C313.3 292.7 284.7 289.3 256.2 295.3C227.7 301.3 199.3 316.7 170.8 324.3C142.3 332 113.7 332 85.2 327.2C56.7 322.3 28.3 312.7 14.2 307.8L0 303Z" fill="#330099"></path></svg>